# xmcd
#
# Track frame offsets: 
#        150
#        71921
#        94044
#        116712
#        136941
#        151936
#        182872
#        195568
#        218198
#        259904
#
# Disc length: 3661 seconds
#
# Revision: 0
# Processed by: cddbd v1.5.2PL0 Copyright (c) Steve Scherf et al.
# Submitted via: ExactAudioCopy v1.0b3
#
DISCID=930e4b0a
DTITLE=THP Orchestra - Two Hot For Love
DYEAR=1977
DGENRE=Disco
TTITLE0=Two Hot For Love
TTITLE1=Early Riser
TTITLE2=Manha De Carnival (Theme From Black Orpheus)
TTITLE3=Dawn Patrol
TTITLE4=Crazy, Crazy
TTITLE5=Two Hot For Love (RCA 12" Mix)
TTITLE6=Two Hot For Love (7" Mix)
TTITLE7=Two Hot For Love (7" B Side)
TTITLE8=Two Hot For Love (Pete Waterman 12" Edit)
TTITLE9=Two Hot For Love (US 7" Mix)
EXTD=
EXTT0=
EXTT1=
EXTT2=
EXTT3=
EXTT4=
EXTT5=
EXTT6=
EXTT7=
EXTT8=
EXTT9=
PLAYORDER=
